<svg xmlns="http://www.w3.org/2000/svg" viewBox="0 0 201 170.44"><g id="Calque_2" data-name="Calque 2"><g id="Calque_1-2" data-name="Calque 1"><path d="M99.43,28.37a56.93,56.93,0,0,1,55.46,44.14H183.7A85.22,85.22,0,0,0,17.27,62.58h30A56.93,56.93,0,0,1,99.43,28.37Z"></path><path d="M155,97.54A56.92,56.92,0,0,1,47.14,107.78H17.25a85.22,85.22,0,0,0,166.5-10.24Z"></path><path d="M0,66.91v36.62H201V66.91Zm118.29,33.55H3V70H118.29Zm9.1-7.85a5.35,5.35,0,0,0,3-1.15L132.21,94a7.78,7.78,0,0,1-5.05,1.79c-4.42,0-7-2.9-7-7.16s2.72-7.37,7.11-7.37a7.37,7.37,0,0,1,5,1.72l-1.74,2.44a5.36,5.36,0,0,0-3.06-1c-1.85,0-3,1.16-3,4.24S125.64,92.61,127.39,92.61Zm16,3.21c-3.57,0-5.26-1.95-5.26-5.08V84.55h-2.85v-2.8h2.85v-3l4.06-.49v3.44h4.39l-.41,2.8h-4v6.19c0,1.36.59,1.87,1.95,1.87a4.86,4.86,0,0,0,2.39-.61l1.33,2.59A8.26,8.26,0,0,1,143.35,95.82Zm15.43,0c-3.28,0-4.77-2-4.77-5.23V79.11h-4V76.34h8.06V91.1c0,1.1.67,1.51,1.75,1.51a5.21,5.21,0,0,0,1.95-.41l1,2.72A8.1,8.1,0,0,1,158.78,95.82Z"></path><path d="M47.37,95.82a4.45,4.45,0,0,0,3.77-1.92l.21,1.49h3.59v-19l-4-.44v6.68a4.17,4.17,0,0,0-3.08-1.29c-3.37,0-5.45,3-5.45,7.24C42.36,92.92,44,95.82,47.37,95.82Zm1.51-11.55a2.46,2.46,0,0,1,2,1.13v5.88a2.68,2.68,0,0,1-2.24,1.56c-1.23,0-2.1-.92-2.1-4.28C46.55,85.5,47.47,84.27,48.88,84.27Z"></path><path d="M67.21,92.66H64.52v-3.9c.61-2,1.82-3.54,3.36-3.8v2.49h2.57l.74-5.7a5.93,5.93,0,0,0-2.26-.41c-2.18,0-3.67,1.13-4.64,3.47l-.72-3.06h-4.9v2.7h1.79v8.21H58.67v2.73h8.54Z"></path><path d="M79.82,79.19a2.29,2.29,0,1,0,0-4.57,2.29,2.29,0,1,0,0,4.57Z"></path><polygon points="85.75 92.61 82.26 92.61 82.26 81.75 74.48 81.75 74.48 84.53 78.2 84.53 78.2 92.61 74.35 92.61 74.35 95.39 85.75 95.39 85.75 92.61"></polygon><path d="M92.37,95.39h4v-10h4l.46-2.82H96.4V80.78c0-1.34.64-1.88,2.26-1.88a8,8,0,0,1,2.9.52l1.13-2.65A11.63,11.63,0,0,0,98,75.9c-3.7,0-5.65,2-5.65,4.75V82.6H89.5v2.82h2.87Z"></path><path d="M107.29,90.74c0,3.13,1.69,5.08,5.26,5.08A8.28,8.28,0,0,0,117,94.59L115.68,92a4.83,4.83,0,0,1-2.39.61c-1.36,0-2-.51-2-1.87V84.55h4l.41-2.8h-4.39V78.31l-4,.49v3h-2.85v2.8h2.85Z"></path></g></g></svg>