<svg xmlns="http://www.w3.org/2000/svg" viewBox="0 0 232.48 194.99"><defs><style>.cls-1{isolation:isolate;}.cls-2{opacity:0.75;mix-blend-mode:lighten;}.cls-3{fill:#fff;}.cls-4{fill:#04394f;}</style></defs><g class="cls-1"><g id="Calque_1" data-name="Calque 1"><g class="cls-2"><path class="cls-3" d="M124.77,61.3a65.39,65.39,0,0,1,63.86,50.23h33.19C214.75,64.83,174,29,124.77,29c-45.18,0-83.2,30.18-94.62,71.24h34.5A65.58,65.58,0,0,1,124.77,61.3Z" transform="translate(-9.26 -28)"/><path class="cls-3" d="M188.77,140A65.79,65.79,0,0,1,64.54,151.68H30.13C41.52,192.78,79.56,223,124.77,223c49.38,0,90.22-36.05,97.1-83Z" transform="translate(-9.26 -28)"/><path class="cls-3" d="M10.26,105.16v41.68H241.74V105.16Zm136.22,38.19H13.71v-34.7H146.48ZM157,134.42a6.19,6.19,0,0,0,3.49-1.32l2.07,2.92a9,9,0,0,1-5.82,2c-5.09,0-8.1-3.3-8.1-8.15s3.13-8.39,8.19-8.39a8.53,8.53,0,0,1,5.73,2l-2,2.77A6.15,6.15,0,0,0,157,125.1c-2.13,0-3.51,1.31-3.51,4.82S155,134.42,157,134.42Zm18.39,3.65c-4.11,0-6.06-2.22-6.06-5.79v-7H166v-3.18h3.28V118.7l4.67-.56v3.92H179l-.47,3.18H174v7c0,1.55.68,2.14,2.25,2.14a5.73,5.73,0,0,0,2.75-.7l1.54,2.95A9.56,9.56,0,0,1,175.35,138.07Zm17.77,0c-3.78,0-5.5-2.31-5.5-6V119.05H183v-3.16h9.28v16.8c0,1.26.77,1.73,2,1.73a6.09,6.09,0,0,0,2.25-.47l1.09,3.1A9.49,9.49,0,0,1,193.12,138.07Z" transform="translate(-9.26 -28)"/><path class="cls-3" d="M64.81,138.07a5.17,5.17,0,0,0,4.35-2.19l.24,1.69h4.13V115.89l-4.67-.5V123a4.83,4.83,0,0,0-3.54-1.46c-3.88,0-6.27,3.45-6.27,8.24C59.05,134.77,60.91,138.07,64.81,138.07Zm1.75-13.15a2.82,2.82,0,0,1,2.3,1.29v6.69a3.07,3.07,0,0,1-2.57,1.78c-1.42,0-2.42-1.05-2.42-4.88C63.87,126.32,64.93,124.92,66.56,124.92Z" transform="translate(-9.26 -28)"/><path class="cls-3" d="M87.67,134.48H84.56V130c.71-2.3,2.1-4,3.87-4.32v2.83h3l.86-6.48a6.64,6.64,0,0,0-2.6-.47c-2.52,0-4.23,1.28-5.35,3.94l-.83-3.47H77.82v3.06h2.07v9.36H77.82v3.09h9.85Z" transform="translate(-9.26 -28)"/><path class="cls-3" d="M102.18,119.13a2.6,2.6,0,1,0,0-5.2,2.61,2.61,0,1,0,0,5.2Z" transform="translate(-9.26 -28)"/><polygon class="cls-3" points="99.75 106.41 95.73 106.41 95.73 94.05 86.77 94.05 86.77 97.21 91.06 97.21 91.06 106.41 86.63 106.41 86.63 109.57 99.75 109.57 99.75 106.41"/><path class="cls-3" d="M116.64,137.57h4.64V126.23h4.58l.54-3.21h-5.12V121c0-1.52.74-2.14,2.6-2.14a9.3,9.3,0,0,1,3.34.59l1.3-3a13.33,13.33,0,0,0-5.38-1c-4.25,0-6.5,2.34-6.5,5.41V123h-3.31v3.21h3.31Z" transform="translate(-9.26 -28)"/><path class="cls-3" d="M133.81,132.28c0,3.57,2,5.79,6.07,5.79a9.55,9.55,0,0,0,5.14-1.4l-1.54-2.95a5.7,5.7,0,0,1-2.75.7c-1.56,0-2.24-.59-2.24-2.14v-7h4.58l.47-3.18h-5v-3.92l-4.68.56v3.36h-3.28v3.18h3.28Z" transform="translate(-9.26 -28)"/></g><path class="cls-4" d="M123.77,60.3a65.39,65.39,0,0,1,63.86,50.23h33.19C213.75,63.83,173,28,123.77,28c-45.18,0-83.2,30.18-94.62,71.24h34.5A65.58,65.58,0,0,1,123.77,60.3Z" transform="translate(-9.26 -28)"/><path class="cls-4" d="M187.77,139A65.79,65.79,0,0,1,63.54,150.68H29.13C40.52,191.78,78.56,222,123.77,222c49.38,0,90.22-36.05,97.1-83Z" transform="translate(-9.26 -28)"/><path class="cls-4" d="M9.26,104.16v41.68H240.74V104.16Zm136.22,38.19H12.71v-34.7H145.48ZM156,133.42a6.19,6.19,0,0,0,3.49-1.32l2.07,2.92a9,9,0,0,1-5.82,2c-5.09,0-8.1-3.3-8.1-8.15s3.13-8.39,8.19-8.39a8.53,8.53,0,0,1,5.73,2l-2,2.77A6.15,6.15,0,0,0,156,124.1c-2.13,0-3.51,1.31-3.51,4.82S154,133.42,156,133.42Zm18.39,3.65c-4.11,0-6.06-2.22-6.06-5.79v-7H165v-3.18h3.28V117.7l4.67-.56v3.92H178l-.47,3.18H173v7c0,1.55.68,2.14,2.25,2.14a5.73,5.73,0,0,0,2.75-.7l1.54,2.95A9.56,9.56,0,0,1,174.35,137.07Zm17.77,0c-3.78,0-5.5-2.31-5.5-6V118.05H182v-3.16h9.28v16.8c0,1.26.77,1.73,2,1.73a6.09,6.09,0,0,0,2.25-.47l1.09,3.1A9.49,9.49,0,0,1,192.12,137.07Z" transform="translate(-9.26 -28)"/><path class="cls-4" d="M63.81,137.07a5.17,5.17,0,0,0,4.35-2.19l.24,1.69h4.13V114.89l-4.67-.5V122a4.83,4.83,0,0,0-3.54-1.46c-3.88,0-6.27,3.45-6.27,8.24C58.05,133.77,59.91,137.07,63.81,137.07Zm1.75-13.15a2.82,2.82,0,0,1,2.3,1.29v6.69a3.07,3.07,0,0,1-2.57,1.78c-1.42,0-2.42-1.05-2.42-4.88C62.87,125.32,63.93,123.92,65.56,123.92Z" transform="translate(-9.26 -28)"/><path class="cls-4" d="M86.67,133.48H83.56V129c.71-2.3,2.1-4,3.87-4.32v2.83h3l.86-6.48a6.64,6.64,0,0,0-2.6-.47c-2.52,0-4.23,1.28-5.35,3.94l-.83-3.47H76.82v3.06h2.07v9.36H76.82v3.09h9.85Z" transform="translate(-9.26 -28)"/><path class="cls-4" d="M101.18,118.13a2.6,2.6,0,1,0,0-5.2,2.61,2.61,0,1,0,0,5.2Z" transform="translate(-9.26 -28)"/><polygon class="cls-4" points="98.75 105.41 94.73 105.41 94.73 93.05 85.77 93.05 85.77 96.21 90.06 96.21 90.06 105.41 85.63 105.41 85.63 108.57 98.75 108.57 98.75 105.41"/><path class="cls-4" d="M115.64,136.57h4.64V125.23h4.58l.54-3.21h-5.12V120c0-1.52.74-2.14,2.6-2.14a9.3,9.3,0,0,1,3.34.59l1.3-3a13.33,13.33,0,0,0-5.38-1c-4.25,0-6.5,2.34-6.5,5.41V122h-3.31v3.21h3.31Z" transform="translate(-9.26 -28)"/><path class="cls-4" d="M132.81,131.28c0,3.57,2,5.79,6.07,5.79a9.55,9.55,0,0,0,5.14-1.4l-1.54-2.95a5.7,5.7,0,0,1-2.75.7c-1.56,0-2.24-.59-2.24-2.14v-7h4.58l.47-3.18h-5v-3.92l-4.68.56v3.36h-3.28v3.18h3.28Z" transform="translate(-9.26 -28)"/></g></g></svg>